<?xml version="1.0" encoding="UTF-8" standalone="no"?>
<svg xmlns="http://www.w3.org/2000/svg" viewBox="0 0 500 600" width="300" height="350">
  <!-- Logo Laiterie Collet inspiré de l'image partagée -->
  <g>
    <!-- Cercle extérieur avec texture -->
    <circle cx="250" cy="200" r="170" fill="none" stroke="#000000" stroke-width="5" stroke-dasharray="5,2" />
    
    <!-- Tête de vache stylisée -->
    <g transform="translate(250, 200) scale(1.7)">
      <!-- Contour de la tête -->
      <path d="M0,-40 C10,-45 25,-30 35,-20 C45,-10 50,0 45,20 C40,40 20,50 0,40 C-20,50 -40,40 -45,20 C-50,0 -45,-10 -35,-20 C-25,-30 -10,-45 0,-40 Z" fill="none" stroke="#000000" stroke-width="4" />
      
      <!-- Museau -->
      <path d="M0,20 C10,15 20,20 20,30 C15,40 5,45 0,40 C-5,45 -15,40 -20,30 C-20,20 -10,15 0,20 Z" fill="none" stroke="#000000" stroke-width="4" />
      
      <!-- Yeux -->
      <ellipse cx="-20" cy="0" rx="10" ry="15" fill="#FFFFFF" stroke="#000000" stroke-width="2" />
      <ellipse cx="20" cy="0" rx="10" ry="15" fill="#FFFFFF" stroke="#000000" stroke-width="2" />
      <ellipse cx="-20" cy="0" rx="5" ry="7" fill="#000000" />
      <ellipse cx="20" cy="0" rx="5" ry="7" fill="#000000" />
      
      <!-- Cornes -->
      <path d="M-20,-40 C-30,-60 -40,-60 -50,-50 C-45,-40 -35,-35 -25,-35 Z" fill="none" stroke="#000000" stroke-width="4" />
      <path d="M20,-40 C30,-60 40,-60 50,-50 C45,-40 35,-35 25,-35 Z" fill="none" stroke="#000000" stroke-width="4" />
      
      <!-- Oreilles -->
      <path d="M-35,-15 C-50,-20 -60,-15 -55,-5 C-50,5 -40,5 -35,0 Z" fill="none" stroke="#000000" stroke-width="4" />
      <path d="M35,-15 C50,-20 60,-15 55,-5 C50,5 40,5 35,0 Z" fill="none" stroke="#000000" stroke-width="4" />
      
      <!-- Fleur -->
      <g transform="translate(15, 30)">
        <circle cx="0" cy="0" r="5" fill="none" stroke="#000000" stroke-width="2" />
        <circle cx="5" cy="5" r="5" fill="none" stroke="#000000" stroke-width="2" />
        <circle cx="0" cy="10" r="5" fill="none" stroke="#000000" stroke-width="2" />
        <circle cx="-5" cy="5" r="5" fill="none" stroke="#000000" stroke-width="2" />
        <circle cx="0" cy="5" r="3" fill="none" stroke="#000000" stroke-width="2" />
      </g>
    </g>
    
    <!-- Texte "Laiterie" -->
    <text x="250" y="430" text-anchor="middle" font-family="cursive, Arial" font-size="60" font-style="italic" fill="#000000">Laiterie</text>
    
    <!-- Texte "Collet" en plus grand -->
    <text x="250" y="520" text-anchor="middle" font-family="cursive, Arial" font-size="110" font-weight="bold" font-style="italic" fill="#000000">Collet</text>
  </g>
</svg> 